<?xml version="1.0" standalone="no"?>
<!DOCTYPE svg PUBLIC "-//W3C//DTD SVG 20010904//EN"
 "http://www.w3.org/TR/2001/REC-SVG-20010904/DTD/svg10.dtd">
<svg version="1.0" xmlns="http://www.w3.org/2000/svg"
 width="1599.000000pt" height="1050.000000pt" viewBox="0 0 1599.000000 1050.000000"
 preserveAspectRatio="xMidYMid meet">
<metadata>
Created by potrace 1.16, written by Peter Selinger 2001-2019
</metadata>
<g transform="translate(0.000000,1050.000000) scale(0.100000,-0.100000)"
fill="#000000" stroke="none">
<path d="M0 7140 l0 -3360 2928 0 c3311 0 3423 2 4012 76 l205 26 660 -7 c543
-6 668 -9 705 -22 25 -8 66 -17 92 -20 l47 -6 -4 194 c-3 107 -7 291 -10 409
-5 226 -12 289 -46 434 -23 92 -23 111 -3 378 l7 88 36 10 c71 19 282 51 442
66 119 11 325 17 749 21 l585 4 150 29 c228 43 330 53 488 48 136 -4 146 -6
232 -41 l89 -37 623 0 c604 0 625 1 700 21 97 27 155 27 269 -1 143 -34 244
-50 322 -50 71 0 73 -1 92 -32 28 -45 38 -87 51 -198 6 -52 20 -130 31 -173
l20 -78 32 7 c17 3 72 19 121 34 286 90 435 91 607 5 192 -96 348 -254 409
-413 56 -149 47 -282 -34 -459 -44 -97 -67 -176 -67 -233 0 -23 6 -30 33 -39
114 -38 431 -67 627 -57 591 29 775 39 776 40 1 0 5 1507 9 3349 l8 3347
-7997 0 -7996 0 0 -3360z"/>
<path d="M13829 4712 c-88 -58 -96 -68 -130 -171 -17 -53 -37 -107 -44 -121
-20 -38 -62 -84 -66 -71 -6 18 -127 -87 -190 -165 -187 -228 -236 -473 -135
-673 28 -54 44 -61 147 -61 150 0 278 58 508 229 206 153 279 197 400 237 l96
32 17 48 c24 69 23 239 -3 421 -11 81 -22 151 -25 155 -10 16 -127 90 -181
115 -81 37 -147 53 -248 58 l-90 5 -56 -38z"/>
</g>
</svg>
